<svg width="17" height="20" viewBox="0 0 17 20" fill="none" xmlns="http://www.w3.org/2000/svg">
<path d="M8.58329 15.3126C10.8845 15.3126 12.75 13.4471 12.75 11.1459C12.75 8.84473 10.8845 6.97925 8.58329 6.97925C6.28211 6.97925 4.41663 8.84473 4.41663 11.1459C4.41663 13.4471 6.28211 15.3126 8.58329 15.3126Z" stroke="#252525" stroke-width="1.3" stroke-miterlimit="10"/>
<path d="M2.75 18.9582C3.34142 17.8497 4.19181 16.9292 5.21575 16.2893C6.23969 15.6494 7.40112 15.3125 8.58337 15.3125C9.76561 15.3125 10.927 15.6494 11.951 16.2894C12.9749 16.9293 13.8253 17.8498 14.4167 18.9583" stroke="#252525" stroke-width="1.3" stroke-linecap="round" stroke-linejoin="round"/>
<path d="M5.25 5.49377C6.18587 4.6363 7.36534 4.16675 8.58333 4.16675C9.80132 4.16675 10.9808 4.6363 11.9167 5.49377" stroke="#252525" stroke-width="1.3" stroke-linecap="round" stroke-linejoin="round"/>
<path d="M3.58337 3.74878C6.44065 0.972738 10.7261 0.972738 13.5834 3.74878" stroke="#252525" stroke-width="1.3" stroke-linecap="round" stroke-linejoin="round"/>
</svg>
