<svg width="18" height="18" viewBox="0 0 18 18" fill="none" xmlns="http://www.w3.org/2000/svg">
<path d="M8.83333 0.5C6.62397 0.502516 4.50581 1.3813 2.94356 2.94356C1.3813 4.50581 0.502516 6.62397 0.5 8.83333C0.5 11.0598 1.36731 13.1521 2.94155 14.7251C3.71329 15.5016 4.63143 16.1172 5.64278 16.5363C6.65413 16.9554 7.73859 17.1697 8.83333 17.1667C11.0427 17.1642 13.1609 16.2854 14.7231 14.7231C16.2854 13.1609 17.1642 11.0427 17.1667 8.83333C17.1642 6.62397 16.2854 4.50581 14.7231 2.94356C13.1609 1.3813 11.0427 0.502516 8.83333 0.5ZM8.83333 1.6881C10.7277 1.6903 12.5438 2.44381 13.8833 3.78332C15.2229 5.12284 15.9764 6.93898 15.9786 8.83333C15.9769 10.6299 15.2952 12.3593 14.0705 13.6737C13.262 12.7165 12.2092 11.9964 11.0242 11.5897C11.4356 11.2561 11.7675 10.8349 11.9956 10.3569C12.2237 9.87881 12.3424 9.3559 12.343 8.82621C12.3416 8.3578 12.2478 7.89427 12.0669 7.46218C11.8861 7.03008 11.6218 6.63791 11.2892 6.30814C10.9565 5.97836 10.5621 5.71746 10.1284 5.54037C9.69477 5.36329 9.23045 5.2735 8.76205 5.27616C8.29384 5.27756 7.83051 5.37129 7.39857 5.55197C6.96663 5.73266 6.57457 5.99676 6.24482 6.32915C5.91508 6.66155 5.65412 7.05571 5.4769 7.48908C5.29967 7.92245 5.20966 8.38652 5.212 8.85472C5.212 9.95847 5.73002 10.9339 6.52367 11.585C5.36271 11.9807 4.32723 12.6767 3.52253 13.6024C2.33922 12.2962 1.68518 10.5958 1.6881 8.83333C1.6903 6.93898 2.44381 5.12284 3.78332 3.78332C5.12284 2.44381 6.93898 1.6903 8.83333 1.6881ZM8.79175 6.46426C10.0951 6.46426 11.1537 7.52405 11.1537 8.85472C11.1522 9.46676 10.9131 10.0543 10.4869 10.4936C10.0608 10.9328 9.48069 11.1895 8.86898 11.2095C8.83452 11.2095 8.80125 11.2024 8.7668 11.2024C8.7371 11.2024 8.70858 11.2083 8.67888 11.2095C8.06429 11.1855 7.48314 10.9234 7.05832 10.4786C6.6335 10.0338 6.39831 9.44125 6.40248 8.82621C6.40248 7.52405 7.46108 6.46426 8.79175 6.46426ZM8.67769 12.3953C8.70621 12.3964 8.73472 12.4048 8.76324 12.4048H8.79175C8.81789 12.4048 8.83927 12.3964 8.86541 12.3953C9.69426 12.4097 10.5102 12.6032 11.2573 12.9625C12.0043 13.3218 12.6649 13.8384 13.1937 14.4768C11.9484 15.4497 10.4136 15.9783 8.83333 15.9786C7.21727 15.9818 5.64862 15.4327 4.38746 14.4222C4.9176 13.799 5.57441 13.2959 6.31417 12.9464C7.05392 12.5969 7.85965 12.409 8.67769 12.3953Z" fill="#252525"/>
</svg>
