<svg width="11" height="16" viewBox="0 0 11 16" fill="none" xmlns="http://www.w3.org/2000/svg">
<path d="M10.4834 5V5.00002C10.4836 6.12962 10.0935 7.22461 9.37921 8.09967C8.66488 8.97472 7.67015 9.5761 6.56337 9.80202L6.48337 9.81835V9.9V11C6.48337 11.2387 6.38855 11.4676 6.21977 11.6364C6.05099 11.8052 5.82207 11.9 5.58337 11.9C5.34468 11.9 5.11576 11.8052 4.94698 11.6364C4.7782 11.4676 4.68337 11.2387 4.68337 11V9C4.68337 8.7613 4.7782 8.53239 4.94698 8.3636C5.11576 8.19482 5.34468 8.1 5.58337 8.1C6.1965 8.1 6.79585 7.91819 7.30564 7.57756C7.81543 7.23692 8.21277 6.75277 8.4474 6.18632C8.68203 5.61987 8.74342 4.99656 8.62381 4.39522C8.50419 3.79388 8.20895 3.24151 7.77541 2.80797C7.34186 2.37443 6.78949 2.07918 6.18815 1.95957C5.58681 1.83995 4.96351 1.90134 4.39706 2.13597C3.8306 2.37061 3.34645 2.76794 3.00582 3.27773C2.66519 3.78752 2.48337 4.38688 2.48337 5C2.48337 5.23869 2.38855 5.46761 2.21977 5.6364C2.05099 5.80518 1.82207 5.9 1.58337 5.9C1.34468 5.9 1.11576 5.80518 0.946978 5.6364C0.778195 5.46761 0.683374 5.23869 0.683374 5C0.683374 3.70044 1.19962 2.45411 2.11855 1.53518C3.03748 0.616248 4.28381 0.1 5.58337 0.1C6.88293 0.1 8.12927 0.616248 9.0482 1.53518C9.96713 2.45411 10.4834 3.70044 10.4834 5Z" fill="#252525" stroke="white" stroke-width="0.2"/>
<path d="M6.48337 15C6.48337 15.4971 6.08043 15.9 5.58337 15.9C5.08632 15.9 4.68337 15.4971 4.68337 15C4.68337 14.5029 5.08632 14.1 5.58337 14.1C6.08043 14.1 6.48337 14.5029 6.48337 15Z" fill="#252525" stroke="white" stroke-width="0.2"/>
</svg>
