<svg width="18" height="18" viewBox="0 0 18 18" fill="none" xmlns="http://www.w3.org/2000/svg">
<path d="M16.9889 15.816L16.9891 15.8162C17.0665 15.893 17.1279 15.9843 17.1698 16.0849C17.2117 16.1855 17.2333 16.2934 17.2333 16.4024C17.2333 16.5114 17.2117 16.6193 17.1698 16.7199C17.1279 16.8205 17.0665 16.9119 16.9891 16.9886L16.9885 16.9892C16.9117 17.0666 16.8204 17.128 16.7198 17.1699C16.6192 17.2118 16.5113 17.2334 16.4023 17.2334C16.2933 17.2334 16.1854 17.2118 16.0848 17.1699C15.9842 17.128 15.8929 17.0666 15.8161 16.9892L15.8159 16.989L12.678 13.8419L12.6153 13.779L12.5455 13.8338C11.2695 14.8354 9.69386 15.3788 8.07177 15.3768H8.07165C6.62685 15.3768 5.2145 14.9484 4.0132 14.1457C2.81189 13.343 1.87559 12.2021 1.32269 10.8673C0.769791 9.53246 0.625127 8.06367 0.906993 6.64663C1.18886 5.2296 1.88459 3.92797 2.90622 2.90634C3.92785 1.88472 5.22948 1.18898 6.64651 0.907115C8.06355 0.625249 9.53234 0.769913 10.8672 1.32281C12.202 1.87571 13.3429 2.81202 14.1456 4.01332C14.9482 5.21462 15.3767 6.62698 15.3767 8.07177V8.0719C15.3787 9.69398 14.8352 11.2696 13.8337 12.5456L13.7789 12.6155L13.8418 12.6782L16.9889 15.816ZM3.37072 4.93071C2.74947 5.86047 2.41788 6.95356 2.41788 8.07177C2.41788 9.57124 3.01355 11.0093 4.07383 12.0696C5.13412 13.1299 6.57218 13.7255 8.07165 13.7255C9.18986 13.7255 10.283 13.3939 11.2127 12.7727C12.1425 12.1515 12.8671 11.2685 13.295 10.2354C13.723 9.20228 13.8349 8.0655 13.6168 6.96878C13.3986 5.87205 12.8602 4.86465 12.0695 4.07396C11.2788 3.28326 10.2714 2.74479 9.17464 2.52664C8.07792 2.30849 6.94114 2.42045 5.90805 2.84837C4.87496 3.27629 3.99196 4.00095 3.37072 4.93071Z" fill="#252525" stroke="white" stroke-width="0.2"/>
</svg>
