<svg width="18" height="17" viewBox="0 0 18 17" fill="none" xmlns="http://www.w3.org/2000/svg">
<path d="M13.3012 16.2893C13.0832 16.2893 12.8639 16.2373 12.6619 16.1326L9.01815 14.2393L5.33773 16.1319C5.1113 16.2509 4.85549 16.3042 4.59971 16.286C4.34393 16.2677 4.09857 16.1784 3.89183 16.0285C3.68374 15.8806 3.52211 15.6777 3.42554 15.443C3.32896 15.2084 3.30135 14.9517 3.34587 14.7022L4.04182 10.6943L1.08269 7.82107C0.898199 7.645 0.767741 7.42108 0.706303 7.17505C0.644866 6.92901 0.654943 6.67085 0.735377 6.43022C0.813874 6.1892 0.95949 5.9749 1.15555 5.81185C1.35161 5.64879 1.59019 5.54358 1.84397 5.50825L5.91703 4.92346L7.7689 1.25535C8.00222 0.789102 8.47352 0.5 9.00015 0.5C9.52679 0.5 9.99809 0.789102 10.2314 1.25535L12.0533 4.90173L16.1563 5.50825C16.4101 5.54358 16.6487 5.64879 16.8448 5.81185C17.0408 5.9749 17.1864 6.1892 17.2649 6.43022C17.345 6.67088 17.355 6.92896 17.2935 7.17493C17.2321 7.4209 17.1018 7.64482 16.9176 7.82107L13.9698 10.6594L14.6544 14.7029C14.6986 14.9523 14.6708 15.2089 14.5742 15.4435C14.4777 15.678 14.3163 15.881 14.1085 16.0292C13.8737 16.1976 13.5913 16.2886 13.3012 16.2893ZM2.01262 6.87803L4.95976 9.71636C5.28307 10.0285 5.43106 10.4763 5.35507 10.9162L4.65978 14.9248L5.02775 15.5491L4.71711 14.9663L8.3602 13.0736C8.55725 12.9714 8.77648 12.9179 8.99907 12.9178C9.22166 12.9177 9.44095 12.9709 9.63811 13.073L13.2819 14.9663L13.3392 14.9248L12.6432 10.9169C12.6058 10.7002 12.6222 10.4777 12.6909 10.2686C12.7597 10.0595 12.8787 9.87003 13.0379 9.71636L15.9857 6.87803L15.9637 6.8102L11.8906 6.22541C11.6704 6.19355 11.4612 6.10938 11.2811 5.98011C11.1011 5.85084 10.9554 5.68033 10.8567 5.48323L9.03482 1.83685C9.02949 1.82631 9.02349 1.81578 8.99882 1.81578L7.14095 5.48323C7.04255 5.6803 6.89716 5.85082 6.71729 5.9801C6.53741 6.10938 6.32844 6.19357 6.10835 6.22541L2.03396 6.8102L1.54666 7.34889L2.01262 6.87803Z" fill="#252525"/>
</svg>
